<svg xmlns="http://www.w3.org/2000/svg" xmlns:xlink="http://www.w3.org/1999/xlink" id="Layer_1" x="0px" y="0px" viewBox="0 0 861.53 274.79" style="enable-background:new 0 0 861.53 274.79;" xml:space="preserve"><style type="text/css">	.st0{fill:#E3172C;}</style><g>	<path class="st0" d="M8.25,0h59.28c1.28,0,2.35,0,3.63,0c10.66,0,19.19,0.21,26.23,3.63c10.66,5.12,17.48,17.06,17.48,33.9   c0,19.19-11.3,33.05-33.48,40.94c8.74,20.47,18.12,41.37,28.57,62.69H76.48L42.15,60.34c4.26,0.64,8.32,0.85,12.37,0.85   c21.11,0,31.56-7.46,31.56-21.96c0-14.07-8.53-16.63-28.36-16.63c-5.33,0-11.51,0.21-18.12,0.64c-1.28,6.18-2.13,12.79-2.35,20.04   l-2.13,54.8c-0.21,3.41-0.43,17.7-1.07,43.07H1C4.63,108.53,7.4,61.41,8.25,0z"></path>	<path class="st0" d="M157.69,89.7c-0.21,2.77-0.21,4.48-0.21,5.12c0,16.42,10.45,25.59,29.85,25.59c10.45,0,20.04-2.13,29.43-6.61   L211,140.45c-12.15,2.99-22.81,4.69-31.77,4.69c-33.05,0-52.67-19.83-52.67-53.73c0-37.31,22.39-60.56,55.44-60.56   c29.43,0,43.92,15.57,43.92,46.48c0,4.05-0.21,8.1-0.64,12.37H157.69z M197.35,70.94c0-12.37-6.4-18.98-17.48-18.98   c-10.87,0-18.98,7.25-21.11,18.98H197.35z"></path>	<path class="st0" d="M294.89,98.02c0.64,2.35,1.71,7.25,3.2,14.71c1.49-5.33,3.2-10.23,4.9-14.93l14.93-39.02   c2.99-7.68,5.33-15.99,7.25-25.16h31.98l-51.17,116.21c-12.79,29.21-25.59,40.51-54.16,40.51c-7.25,0-14.29-0.43-21.54-1.71   L229,163.48c7.04,1.71,14.07,2.56,21.32,2.56c10.66,0,18.76-4.69,24.09-13.65l6.18-10.66l-26.23-75.91   c-1.92-5.76-6.18-16.63-12.15-32.2h33.69L294.89,98.02z"></path>	<path class="st0" d="M370.37,32.62h27.72v13.22c9.6-11.73,20.68-16.21,36.89-16.21c29.85,0,41.37,11.09,41.37,36.46   c0,12.15-1.49,33.69-1.49,64.39c0,3.41,0,7.04,0,10.66h-30.06c2.77-32.62,3.41-53.73,3.41-62.69c0-18.34-4.69-26.23-20.04-26.23   c-26.44,0-33.05,22.82-33.05,72.92c0,5.12,0,10.45,0.21,15.99h-30.28C368.66,106.83,370.37,70.58,370.37,32.62z"></path>	<path class="st0" d="M547.35,29.64c34.97,0,54.8,19.83,54.8,54.37c0,37.95-21.96,60.13-59.06,60.13   c-34.76,0-54.37-19.83-54.37-54.8C488.72,52.45,510.89,29.64,547.35,29.64z M518.57,89.13c0,20.9,8.74,31.56,25.8,31.56   c18.55,0,27.72-11.73,27.72-35.82c0-21.11-8.32-31.56-25.37-31.56C528.16,53.31,518.57,65.25,518.57,89.13z"></path>	<path class="st0" d="M648.16,89.13l-0.64,52.03h-31.56c3.41-25.37,6.4-72.5,7.25-141.16h30.49   C650.29,31.34,648.59,61.2,648.16,89.13z"></path>	<path class="st0" d="M743.89,12.37c0-4.05,0-8.32-0.21-12.37h30.7c-3.2,37.31-5.76,84.44-6.4,141.16h-28.15v-14.5   c-7.89,11.3-20.47,17.48-34.97,17.48c-29,0-44.99-17.7-44.99-49.26c0-39.66,22.18-63.54,60.98-63.54c7.68,0,14.93,1.07,22.39,3.2   C743.68,27.29,743.89,19.83,743.89,12.37z M725.13,55.87c-22.39,0-35.4,13.22-35.4,36.46c0,17.27,8.96,27.29,23.67,27.29   c17.7,0,27.72-11.09,28.57-32.62l0.85-28.57C737.92,56.72,731.95,55.87,725.13,55.87z"></path>	<path class="st0" d="M816.97,121.69c10.87,0,16.21-2.77,16.21-9.17c0-2.77-1.71-5.97-3.84-7.68l-23.67-18.76   c-11.94-9.38-19.19-16.21-19.19-28.15c0-15.57,14.71-27.29,38.81-27.29c8.96,0,19.19,1.49,31.34,4.48l1.92,24.52   c-11.51-4.05-20.9-6.4-28.57-6.4c-8.32,0-12.79,2.35-12.79,6.18c0,1.71,1.28,4.26,3.41,5.97l22.39,17.48   c12.15,9.6,18.55,17.27,18.55,29.43c0,20.26-14.5,32.84-41.79,32.84c-10.02,0-21.32-2.13-34.12-6.4l-2.56-27.08   C797.35,118.49,809.08,121.69,816.97,121.69z"></path></g><g>	<path d="M151.66,201.85h33.05c9.26,0,16.31,0.22,22.81,5.07c7.71,5.73,12.12,15.54,12.12,28.54c0,24.24-14.54,39.34-38.23,39.34   h-33.5C149.79,257.93,151.22,233.58,151.66,201.85z M173.37,262.01c8.15,0,14.43-0.11,20.27-4.41c6.17-4.63,9.48-11.9,9.48-21.49   c0-8.59-2.2-14.76-6.28-18.29c-3.75-3.2-8.81-3.2-16.2-3.2H167.2l-1.43,31.95c-0.11,3.75-0.22,7.38-0.22,11.24   c0,1.32,0,2.75,0,4.19H173.37z"></path>	<path d="M250.94,201.85h30.63c0.66,0,1.21,0,1.87,0c5.51,0,9.92,0.11,13.55,1.87c5.51,2.64,9.04,8.81,9.04,17.52   c0,9.92-5.84,17.08-17.3,21.16c4.52,10.58,9.37,21.38,14.76,32.39h-17.3l-17.74-41.76c2.2,0.33,4.3,0.44,6.39,0.44   c10.91,0,16.31-3.86,16.31-11.35c0-7.27-4.41-8.59-14.65-8.59c-2.75,0-5.95,0.11-9.37,0.33c-0.66,3.2-1.1,6.61-1.21,10.36   l-1.1,28.32c-0.11,1.76-0.22,9.15-0.55,22.26h-17.08C249.06,257.93,250.5,233.58,250.94,201.85z"></path>	<path d="M345.69,201.85c0.77,2.97,1.98,5.51,2.97,7.71l8.7,18.4l10.69-18.29c0.88-1.65,2.2-4.19,3.64-7.82h18.29l-25.67,39.89   l-0.55,23.69c0,0.77,0,1.65,0,2.53c0,2.09,0,4.3,0.11,6.83h-16.53c0.55-7.05,0.77-11.13,0.77-12.34l0.77-20.49l-22.04-40.11H345.69   z"></path>	<path d="M414.59,201.85h16.86c-0.99,4.96-1.21,9.7-1.43,13.99l-1.54,31.84c-0.11,2.31-0.22,4.52-0.22,6.61   c0,2.42,0.22,4.85,0.33,7.38c2.64,0.11,5.18,0.33,7.6,0.33c9.37,0,17.19-0.55,23.69-1.65l-1.1,14.43h-47.93   C412.83,256.83,414.15,232.48,414.59,201.85z"></path>	<path d="M509.62,217.05l-2.2,41.54c0.89,1.54,0.89,3.31,0.89,5.51c0,2.86,0,6.5,0.11,10.69h-17.3c1.98-16.64,3.42-40.99,3.86-72.94   h17.08C511.39,207.14,510.84,212.2,509.62,217.05z"></path>	<path d="M576.51,254.51l-18.18-41.43l-1.87,39c-0.44,8.37-0.55,15.98-0.66,22.7h-15.1c1.87-14.88,2.98-39.23,4.3-72.94h24.24   l27.1,61.15l1.98-44.07c0.22-4.08,0.44-8.26,0.44-12.89c0-1.32-0.11-2.75-0.11-4.19h15.1c-0.66,5.29-1.21,10.36-1.43,15.21   l-2.09,41.54c-0.11,2.09-0.22,4.74-0.22,8.15c0,2.31,0.11,5.07,0.11,8.04h-25.45C582.57,268.29,579.6,261.68,576.51,254.51z"></path>	<path d="M643.71,201.85h54.21l-0.55,13.33c-6.94-0.33-11.35-0.44-13-0.44h-24.9c-0.55,1.98-0.77,4.74-0.99,8.26l-0.33,7.05h22.26   c4.19,0,8.26,0,12.23-0.44l-0.44,13.77c-3.53-0.33-7.05-0.33-10.47-0.33c-1.65,0-3.42,0-5.07,0h-19.06l2.45,7.6   c-0.22,2.86-3.44,5.84-3.44,9.04c0,0.55,0,0.99,0,1.54c3.09,0.11,6.5,0.22,10.36,0.22c10.47,0,19.72-0.33,27.77-1.1l-0.55,14.43   h-54.21C641.94,256.83,643.27,232.48,643.71,201.85z"></path></g></svg>